<svg width="19" height="20" viewBox="0 0 19 20" fill="none" xmlns="http://www.w3.org/2000/svg">
<path d="M12.828 5.75701L7.17204 11.414C7.07653 11.5063 7.00035 11.6166 6.94794 11.7386C6.89553 11.8606 6.86795 11.9918 6.86679 12.1246C6.86564 12.2574 6.89094 12.3891 6.94122 12.512C6.9915 12.6349 7.06576 12.7465 7.15965 12.8404C7.25354 12.9343 7.36519 13.0086 7.48809 13.0588C7.61098 13.1091 7.74267 13.1344 7.87544 13.1333C8.00822 13.1321 8.13944 13.1045 8.26145 13.0521C8.38345 12.9997 8.4938 12.9235 8.58604 12.828L14.243 7.17201C14.8057 6.60935 15.1218 5.84623 15.1218 5.05051C15.1218 4.25479 14.8057 3.49167 14.243 2.92901C13.6804 2.36635 12.9173 2.05026 12.1215 2.05026C11.3258 2.05026 10.5627 2.36635 10 2.92901L4.34304 8.58601C3.86912 9.04814 3.49167 9.59977 3.2326 10.2089C2.97353 10.818 2.83799 11.4726 2.83384 12.1345C2.82969 12.7964 2.95702 13.4526 3.20844 14.0649C3.45986 14.6773 3.83036 15.2336 4.29846 15.7016C4.76655 16.1696 5.32293 16.5401 5.9353 16.7914C6.54767 17.0427 7.20385 17.17 7.86578 17.1657C8.52771 17.1615 9.1822 17.0258 9.7913 16.7667C10.4004 16.5075 10.952 16.13 11.414 15.656L17.071 10L18.485 11.414L12.828 17.071C12.178 17.7211 11.4063 18.2367 10.557 18.5885C9.70764 18.9403 8.79734 19.1214 7.87804 19.1214C6.95874 19.1214 6.04844 18.9403 5.19912 18.5885C4.3498 18.2367 3.57809 17.7211 2.92804 17.071C2.278 16.421 1.76236 15.6493 1.41056 14.7999C1.05875 13.9506 0.877686 13.0403 0.877686 12.121C0.877686 11.2017 1.05875 10.2914 1.41056 9.44209C1.76236 8.59277 2.278 7.82105 2.92804 7.17101L8.58604 1.51501C9.52905 0.604219 10.7921 0.100247 12.103 0.111639C13.414 0.123031 14.6681 0.648876 15.5951 1.57592C16.5222 2.50296 17.048 3.75702 17.0594 5.068C17.0708 6.37899 16.5668 7.642 15.656 8.58501L10 14.244C9.72138 14.5226 9.39057 14.7436 9.0265 14.8943C8.66243 15.0451 8.27223 15.1227 7.87819 15.1226C7.48414 15.1226 7.09397 15.0449 6.72993 14.8941C6.3659 14.7432 6.03514 14.5222 5.75654 14.2435C5.47794 13.9648 5.25696 13.634 5.10621 13.27C4.95546 12.9059 4.87789 12.5157 4.87794 12.1217C4.87798 11.7276 4.95564 11.3374 5.10648 10.9734C5.25732 10.6094 5.47838 10.2786 5.75704 10L11.414 4.34301L12.828 5.75701Z" fill="black"/>
</svg>
